<?xml version="1.0" encoding="utf-8"?>
<!-- Generator: Adobe Illustrator 22.0.1, SVG Export Plug-In . SVG Version: 6.00 Build 0)  -->
<svg version="1.1" id="Layer_1" xmlns="http://www.w3.org/2000/svg" xmlns:xlink="http://www.w3.org/1999/xlink" x="0px" y="0px"
	 viewBox="0 0 380.8 229.5" enable-background="new 0 0 380.8 229.5" xml:space="preserve">
<g>
	<path fill="#FCB131" d="M190.3,199.7c20.2,18.5,47.1,29.7,76.5,29.7c63,0,114-51.4,114-114.7C380.8,51.3,329.7,0,266.8,0
		c-29.5,0-56.3,11.2-76.5,29.7c-23,21-37.5,51.3-37.5,85S167.3,178.8,190.3,199.7L190.3,199.7z"/>
	<path fill="#FCB131" d="M365.7,178.7c0-2.1,1.7-3.7,3.7-3.7s3.7,1.7,3.7,3.7s-1.6,3.7-3.7,3.7S365.7,180.7,365.7,178.7L365.7,178.7
		z M369.4,181.5c1.6,0,2.8-1.3,2.8-2.8c0-1.6-1.3-2.8-2.8-2.8s-2.8,1.3-2.8,2.8C366.6,180.2,367.8,181.5,369.4,181.5L369.4,181.5z
		 M368.9,180.3h-0.8V177h1.4c0.3,0,0.6,0,0.8,0.2c0.3,0.2,0.4,0.5,0.4,0.8c0,0.4-0.2,0.7-0.6,0.8l0.6,1.4h-0.8l-0.5-1.3h-0.6v1.4
		v-1.8h0.4c0.2,0,0.3,0,0.5-0.1c0.1-0.1,0.2-0.2,0.2-0.4c0-0.1-0.1-0.3-0.2-0.3c-0.1-0.1-0.3-0.1-0.5-0.1h-0.4v0.8v1.9H368.9z"/>
	<path fill="#ED1B2E" d="M227.2,102.5c-0.4-4.1-1.1-8.2-1.9-12.1h-69.8c0.9-4.1,2-8.2,3.3-12.1H222c-1.4-4.2-3-8.2-4.8-12.2h-53.5
		c2-4.2,4.2-8.2,6.6-12.1h40.4c-2.6-4.2-5.5-8.3-8.7-12.1h-23c3.5-4.3,7.4-8.4,11.5-12.1C170.3,11.3,143.4,0.1,114,0.1
		C51,0.1,0,51.5,0,114.8c0,63.4,51.1,114.7,114,114.7c29.5,0,56.3-11.2,76.5-29.7l0,0l0,0c4.1-3.8,8-7.8,11.5-12.1h-23
		c-3.1-3.8-6-7.9-8.7-12.1h40.4c2.4-3.9,4.6-8,6.6-12.1h-53.5c-1.8-3.9-3.5-8-4.9-12.1h63.2c1.3-4,2.4-8,3.3-12.1
		c0.9-4,1.5-8,1.9-12.2c0.4-4,0.6-8,0.6-12.1C227.8,110.6,227.6,106.5,227.2,102.5L227.2,102.5z"/>
	<path fill="#FFFFFF" d="M365.7,141.3c0-2,1.7-3.7,3.7-3.7s3.7,1.7,3.7,3.7s-1.6,3.7-3.7,3.7C367.3,145,365.7,143.4,365.7,141.3
		L365.7,141.3z M369.4,144.1c1.6,0,2.8-1.3,2.8-2.8c0-1.6-1.3-2.8-2.8-2.8s-2.8,1.3-2.8,2.8C366.6,142.9,367.8,144.1,369.4,144.1
		L369.4,144.1z M368.9,142.9h-0.8v-3.2h1.4c0.3,0,0.6,0,0.8,0.2c0.3,0.2,0.4,0.5,0.4,0.8c0,0.4-0.2,0.7-0.6,0.8l0.6,1.4h-0.8
		l-0.5-1.3h-0.6v1.3v-1.8h0.4c0.2,0,0.3,0,0.5-0.1c0.1-0.1,0.2-0.2,0.2-0.4c0-0.1-0.1-0.3-0.2-0.3c-0.1-0.1-0.3-0.1-0.5-0.1h-0.4
		v0.8v1.9H368.9z"/>
	<path fill="#003473" d="M151.5,147.8c-3.8,1.1-6.5,1.5-9.3,1.5c-5.8,0-9.4-3.7-9.4-10.4c0-1.3,0.1-2.7,0.4-4.2l0.7-4.6l0.6-3.7
		l5.4-32.3h11.9l-1.4,7h7.4L156,113h-7.5l-3.2,19.3c-0.1,0.9-0.2,1.5-0.2,2c0,2.4,1.3,3.5,4.2,3.5c1.4,0,2.5-0.1,3.8-0.4
		L151.5,147.8L151.5,147.8z"/>
	<path fill="#003473" d="M189.8,147.4c-4.2,1.3-8.3,1.9-12.7,1.9c-13.2,0-21-7.3-21-21.2c0-16.2,9.2-28.2,21.6-28.2
		c10.2,0,16.7,6.7,16.7,17.2c0,3.5-0.4,6.9-1.5,11.7h-24.6c-0.1,0.7-0.1,1.1-0.1,1.5c0,5.5,3.7,8.3,10.9,8.3c4.4,0,8.4-0.9,12.9-3
		L189.8,147.4L189.8,147.4z M182.4,119.2c0.1-1,0.1-1.8,0.1-2.4c0-3.8-2.2-6.1-5.9-6.1c-3.9,0-6.8,3-7.9,8.5H182.4L182.4,119.2z"/>
	<polygon fill="#003473" points="57.1,148.4 44.7,148.4 51.8,103.7 35.9,148.4 27.5,148.4 26.5,103.9 19,148.4 7,148.4 16.7,90.2 
		34.5,90.2 35,126.3 47,90.2 66.6,90.2 	"/>
	<path fill="#003473" d="M86.8,127.3c-1.3-0.2-1.5-0.2-2.4-0.2c-7,0-10.6,2.7-10.6,7.2c0,2.9,1.7,4.8,4.4,4.8
		C84.2,139.2,86.6,134.3,86.8,127.3L86.8,127.3z M96.6,148.4H85.9l0.2-4.9c-2.7,3.7-6.4,5.7-13,5.7c-6,0-11-5.3-11-12.9
		c0-2.3,0.4-4.3,0.9-6.2c2-7.3,9.3-11.9,20.5-12.1c1.4,0,3.6,0,5.4,0.2c0.4-1.6,0.5-2.2,0.5-3.1c0-3.1-2.6-4.1-8.3-4.1
		c-3.5,0-7.5,0.6-10.2,1.4l-1.7,0.5l-0.7,0.2l1.7-10.6c5.8-1.8,9.8-2.5,14.4-2.5c10.6,0,16.3,4.8,16.3,13.9c0,2.3,0.2,4.1-0.6,9.4
		l-2.6,16.8l-0.4,3l-0.3,2.4l-0.2,1.6L96.6,148.4L96.6,148.4z"/>
	<path fill="#003473" d="M249.3,101.5c3.4,0,6.6,0.9,11.1,3.1l2-12.6c-1.1-0.5-1.4-0.6-3-1.1l-5.1-1.3c-1.6-0.4-3.4-0.6-5.5-0.6
		c-6.1,0-9.7,0.1-13.5,2.4c-2,1.2-4.5,3-7.4,6.2l-1.5-0.5l-12.6,9l0.6-5.1h-13.1l-7.5,47.3h12.4l4.5-25.5c0,0,1.8-3.5,2.6-4.6
		c2.3-3.1,4.3-3.1,6.9-3c0.3,0,0.7,0,0.9,0c-0.4,2.8-0.6,5.8-0.6,9c0,15.5,8.7,25.1,22.1,25.1c3.4,0,6.4-0.5,10.9-1.7l2.2-13.3
		c-4.1,2-7.5,3-10.5,3c-7.2,0-11.5-5.3-11.5-14.2C233.6,110.5,240.1,101.5,249.3,101.5L249.3,101.5z"/>
	<path fill="#003473" d="M353.9,90.2l-2.7,16.6c-3-4.5-6.5-6.6-11.3-6.6c-6.5,0-12.5,3.7-16.2,10.7v-0.1l-7.9-4.7l0.6-5.1h-13.1
		l-7.5,47.3h12.4l4.1-25.5c0,0,3.2-3.5,4-4.6c1.8-2.4,3.8-2.9,5.5-3c-1.4,4-2.3,8.7-2.3,14.1c0,11.8,6.1,19.7,15.1,19.7
		c4.5,0,8-1.6,11.4-5.3l-0.6,4.6h11.7l9.4-58.2L353.9,90.2L353.9,90.2z M338.8,137.3c-4.2,0-6.4-3.1-6.4-9.3c0-9.3,4-15.9,9.6-15.9
		c4.3,0,6.6,3.3,6.6,9.3C348.6,130.7,344.6,137.3,338.8,137.3L338.8,137.3z"/>
	<path fill="#003473" d="M281.8,127.3c-1.3-0.2-1.5-0.2-2.4-0.2c-7,0-10.6,2.7-10.6,7.2c0,2.9,1.7,4.8,4.4,4.8
		C279.2,139.2,281.6,134.3,281.8,127.3L281.8,127.3z M291.6,148.4h-10.7l0.2-4.9c-2.7,3.7-6.4,5.7-13,5.7c-6,0-11.4-5.2-11.4-13
		c0.1-11.2,8.4-18.2,21.8-18.2c1.4,0,3.6,0,5.5,0.2c0.4-1.6,0.5-2.2,0.5-3.1c0-3.1-2.6-4.1-8.3-4.1c-3.5,0-7.5,0.6-10.2,1.4
		l-1.7,0.5l-0.7,0.2l1.7-10.6c5.8-1.8,9.8-2.5,14.4-2.5c10.6,0,16.3,4.8,16.3,13.9c0,2.3,0.2,4.1-0.6,9.4l-2.6,16.8l-0.4,3l-0.3,2.4
		l-0.2,1.6L291.6,148.4L291.6,148.4z"/>
	<path fill="#003473" d="M122.4,111.2c2.4,0,5.7,0.2,9.3,0.7l1.8-10.9c-3.6-0.5-8.2-1-11.1-1c-13.8,0-18.4,7.4-18.4,16.2
		c0,5.6,2.7,9.9,9.2,13c5,2.4,5.9,2.8,5.9,5c0,2.9-2.6,4.6-7.4,4.6c-3.7,0-7.1-0.6-11.1-1.9l-1.4,10.9l0.3,0.1l2.3,0.5
		c0.7,0.1,1.8,0.3,3.2,0.5c2.9,0.3,5.4,0.4,7,0.4c13.7,0,19.4-5.4,19.4-15.8c0-6.5-3.1-10.3-9.3-13.2c-5.2-2.4-5.8-2.7-5.8-4.9
		C116.3,113.1,118.6,111.2,122.4,111.2L122.4,111.2z"/>
	<path fill="#FFFFFF" d="M265.7,88.4l-2,12.6c-4.4-2.2-7.6-3.1-11.1-3.1c-9.2,0-15.7,9-15.7,21.8c0,8.8,4.4,14.2,11.6,14.2
		c3.1,0,6.4-1,10.5-3l-2.2,13.3c-4.6,1.2-7.5,1.7-10.9,1.7c-13.3,0-21.6-9.6-21.6-25.1c0-20.8,11.5-35.3,27.9-35.3
		c2.1,0,4,0.2,5.5,0.6l5.1,1.3C264.3,87.8,264.6,87.9,265.7,88.4L265.7,88.4z"/>
	<path fill="#FFFFFF" d="M226,97c-0.4-0.1-0.8-0.1-1.3-0.1c-4.1,0-6.4,2.1-10.2,7.7l1.1-7.2h-11.2l-7.6,47.3h12.5
		c4.4-28.9,5.6-33.9,11.5-33.9c0.4,0,0.4,0,0.9,0c1.1-5.7,2.6-9.9,4.7-13.7L226,97L226,97z"/>
	<path fill="#FFFFFF" d="M154.7,144.2c-3.4,1.1-6,1.5-8.9,1.5c-6.3,0-9.8-3.7-9.8-10.4c0-1.3,0.1-2.7,0.4-4.2l0.8-4.6l0.6-3.7
		l5.4-32.3h12.3l-1.4,7h6.3l-1.7,11.5h-6.3l-3.3,19.7c-0.1,0.9-0.2,1.5-0.2,2c0,2.4,1.3,3.5,4.2,3.5c1.4,0,2.5-0.1,3.3-0.4
		L154.7,144.2L154.7,144.2z"/>
	<path fill="#FFFFFF" d="M107.1,112.4c0,6,2.9,10.1,9.4,13.2c5,2.4,5.8,3.1,5.8,5.2c0,2.9-2.2,4.3-7.1,4.3c-3.7,0-7.1-0.6-11.1-1.9
		l-1.7,10.9l0.6,0.1l2.3,0.5c0.7,0.1,1.8,0.3,3.2,0.4c2.9,0.3,5.2,0.4,6.8,0.4c13,0,19.1-5,19.1-15.8c0-6.5-2.5-10.3-8.7-13.2
		c-5.2-2.4-5.8-2.9-5.8-5.1c0-2.6,2.1-3.9,6.1-3.9c2.4,0,5.7,0.3,8.9,0.7l1.8-11c-3.2-0.5-8.1-0.9-10.9-0.9
		C111.9,96.4,107.1,103.7,107.1,112.4L107.1,112.4z"/>
	<path fill="#FFFFFF" d="M360.2,144.8h-11.7l0.6-4.6c-3.4,3.7-6.9,5.3-11.4,5.3c-9,0-15-7.8-15-19.7c0-15.7,9.2-29,20.1-29
		c4.8,0,8.5,2,11.9,6.5l2.7-16.6h12.2L360.2,144.8L360.2,144.8z M342,133.6c5.8,0,9.8-6.6,9.8-16c0-6-2.3-9.3-6.6-9.3
		c-5.6,0-9.6,6.6-9.6,15.9C335.6,130.5,337.8,133.6,342,133.6L342,133.6z"/>
	<path fill="#FFFFFF" d="M192.5,143.7c-4.2,1.3-8.3,1.9-12.7,1.9c-13.8,0-21-7.3-21-21.2c0-16.3,9.2-28.2,21.6-28.2
		c10.2,0,16.7,6.7,16.7,17.2c0,3.5-0.4,6.9-1.5,11.7H171c-0.1,0.7-0.1,1.1-0.1,1.5c0,5.5,3.7,8.3,10.9,8.3c4.4,0,8.4-0.9,12.8-3
		L192.5,143.7L192.5,143.7z M185.6,115.6c0.1-1,0.1-1.8,0.1-2.4c0-3.8-2.2-6.1-5.9-6.1c-3.9,0-6.8,3-7.9,8.5H185.6L185.6,115.6z"/>
	<polygon fill="#FFFFFF" points="60.2,144.8 47.8,144.8 54.9,100 39.1,144.8 30.6,144.8 29.6,100.3 22.1,144.8 10.6,144.8 
		20.2,86.6 38,86.6 38.5,122.6 50.5,86.6 69.8,86.6 	"/>
	<path fill="#FFFFFF" d="M90.7,123.7c-1.3-0.1-1.9-0.2-2.8-0.2c-7,0-10.6,2.4-10.6,7.2c0,2.9,1.7,4.8,4.4,4.8
		C86.8,135.5,90.5,130.7,90.7,123.7L90.7,123.7z M99.7,144.8H89.4l0.2-4.9c-3.1,3.9-7.3,5.7-13,5.7c-6.7,0-11.3-5.3-11.3-12.9
		c0-11.5,8-18.2,21.7-18.2c1.4,0,3.2,0.1,5,0.4c0.4-1.6,0.5-2.2,0.5-3.1c0-3.1-2.2-4.3-7.9-4.3c-3.5,0-7.5,0.5-10.3,1.3l-1.7,0.5
		l-1.1,0.3L73.2,99c6.2-1.8,10.2-2.5,14.8-2.5c10.6,0,16.3,4.8,16.3,13.9c0,2.3-0.2,4.1-1,9.4l-2.6,16.8l-0.4,3L100,142l-0.2,1.6
		L99.7,144.8L99.7,144.8z"/>
	<path fill="#FFFFFF" d="M285.7,123.7c-1.3-0.1-1.9-0.2-2.8-0.2c-7,0-10.6,2.4-10.6,7.2c0,2.9,1.7,4.8,4.4,4.8
		C281.9,135.5,285.5,130.7,285.7,123.7L285.7,123.7z M294.7,144.8h-10.3l0.2-4.9c-3.1,3.9-7.3,5.7-13,5.7c-6.7,0-11.3-5.3-11.3-12.9
		c0-11.5,8-18.2,21.7-18.2c1.4,0,3.2,0.1,5,0.4c0.4-1.6,0.5-2.2,0.5-3.1c0-3.1-2.2-4.3-7.9-4.3c-3.5,0-7.5,0.5-10.3,1.3l-1.7,0.5
		l-1.1,0.3l1.7-10.6c6.2-1.8,10.2-2.5,14.8-2.5c10.6,0,16.3,4.8,16.3,13.9c0,2.3-0.2,4.1-1,9.4l-2.6,16.8l-0.4,3L295,142l-0.2,1.6
		L294.7,144.8L294.7,144.8z"/>
	<path fill="#FFFFFF" d="M327.9,97c-0.4-0.1-0.8-0.1-1.2-0.1c-4.1,0-6.4,2.1-10.2,7.7l1.1-7.2h-11.2l-7.5,47.3h12.4
		c4.4-28.9,5.6-33.9,11.5-33.9c0.4,0,0.4,0,0.9,0c1.1-5.7,2.6-9.9,4.7-13.7L327.9,97L327.9,97z"/>
</g>
</svg>
