<svg viewBox="0 0 256 72.5" xmlns="http://www.w3.org/2000/svg">
    <linearGradient id="SVGID_1_CARD_MIR" gradientUnits="userSpaceOnUse" x1="-688.347" y1="2096.3403" x2="-615.2234" y2="2096.3403" gradientTransform="matrix(1.0304 0 0 -1.0304 889.9373 2175.1335)">
        <stop  offset="0.3" style="stop-color:#00B4E6"/>
        <stop  offset="1" style="stop-color:#088CCB"/>
    </linearGradient>
    <path fill="#4DB45E" d="M69,0.2L69,0.2c0,0-10,0-12.7,9.5c-2.4,8.7-9.3,32.8-9.5,33.5h-1.9c0,0-7-24.6-9.5-33.5c-2.7-9.5-12.7-9.5-12.7-9.5H0v72.5h22.8v-43h1.9l13.3,43h15.8l13.3-43H69v43h22.8V0.2H69z M152.2,0.2c0,0-6.7,0.6-9.8,7.6l-16.1,35.4h-1.9v-43h-22.8v72.5h21.5c0,0,7-0.6,10.1-7.6L149,29.6h1.9v43h22.8V0.2H152.2z M183.8,33.1v39.6h22.8V49.5h24.7c10.8,0,19.9-6.9,23.3-16.4L183.8,33.1L183.8,33.1L183.8,33.1z"/>
    <path fill="url(#SVGID_1_CARD_MIR)" d="M231.3,0.2h-50.7c2.5,13.8,12.9,24.9,26.3,28.5c3.1,0.8,6.3,1.3,9.5,1.3h39.1c0.3-1.6,0.5-3.3,0.5-5.1C256,11.2,245,0.2,231.3,0.2L231.3,0.2z"/>
</svg>
