<?xml version="1.0" encoding="utf-8"?>
<!-- Generator: Adobe Illustrator 22.0.1, SVG Export Plug-In . SVG Version: 6.00 Build 0)  -->
<svg version="1.1" id="Слой_1" xmlns="http://www.w3.org/2000/svg" xmlns:xlink="http://www.w3.org/1999/xlink" x="0px" y="0px"
	 viewBox="0 0 461 149.3" enable-background="new 0 0 461 149.3" xml:space="preserve">
<g id="形状_1_3_" enable-background="new    ">
	<path fill="#005BAC" d="M186.3,2.6l-23.5,144.2h37.5L223.9,2.6L186.3,2.6L186.3,2.6z M131.3,2.6l-35.8,99.2l-4.2-21.4l0,0l-0.9-4.8
		C86,66.3,75.9,48.5,57,33.4c-5.6-4.5-11.2-8.3-16.7-11.6l32.5,124.9h39.1L171.7,2.6L131.3,2.6L131.3,2.6z M277.8,42.6
		c0-16.3,36.6-14.2,52.6-5.4l5.4-31c0,0-16.5-6.3-33.8-6.3c-18.6,0-62.9,8.1-62.9,47.7c0,37.3,51.9,37.7,51.9,57.3
		s-46.6,16.1-61.9,3.7l-5.6,32.4c0,0,16.8,8.1,42.4,8.1c25.6,0,64.3-13.3,64.3-49.4C330.2,62.4,277.8,58.9,277.8,42.6z M431,2.6
		h-30.2c-13.9,0-17.3,10.7-17.3,10.7l-56,133.5h39.1l7.8-21.4h47.7l4.4,21.4H461L431,2.6z M385.3,95.8l19.7-54l11.1,54H385.3z"/>
	<path fill="#F6AC1D" d="M79.1,16.2c0,0-1.6-13-18.1-13H0.7L0,5.6c0,0,29,5.9,56.8,28C83.3,54.8,92,81.1,92,81.1L79.1,16.2z"/>
</g>
</svg>
