<svg xmlns="http://www.w3.org/2000/svg" xmlns:xlink="http://www.w3.org/1999/xlink" width="37" height="37" viewBox="0 0 37 37">
  <defs>
    <circle id="qiwi-a" cx="18.5" cy="18.5" r="18.5"/>
  </defs>
  <g fill="none" fill-rule="evenodd">
    <mask id="qiwi-b" fill="#fff">
      <use xlink:href="#qiwi-a"/>
    </mask>
    <use fill="#F5F5F5" xlink:href="#qiwi-a"/>
    <path fill="#FF9011" d="M28.4911739,29.5314268 C28.7029716,29.7195331 28.9847315,29.4855987 28.8000775,29.251856 C26.7224331,26.6204769 24.8007697,26.1194353 22.8844586,25.6958605 C20.5401555,25.1775615 19.334361,23.8544896 18.4940514,22.401795 C18.3269835,22.1126366 18.2518603,22.163642 18.2369503,22.5352527 C18.2184084,22.9895073 18.2497576,23.5908339 18.3510688,24.1823813 C18.2566391,24.1867915 18.1614448,24.1856411 18.0658682,24.1856411 C14.712276,24.1856411 11.9935037,21.4583872 11.9935037,18.094333 C11.9935037,14.7304706 14.712276,12.0032167 18.0658682,12.0032167 C21.4194603,12.0032167 24.1380415,14.7304706 24.1380415,18.094333 C24.1380415,18.3338282 24.1263811,18.5702554 24.0996197,18.8024641 C23.6561442,18.7223128 22.7833386,18.7133006 22.1710748,18.7664152 C21.9407352,18.7863571 21.9732312,18.8939286 22.1473718,18.9255673 C24.1546718,19.2893162 25.5338423,20.5372223 25.8488628,22.8015928 C25.8561267,22.8537487 25.9241772,22.8692804 25.9509387,22.8242192 C26.7769117,21.441705 27.2515452,19.8237222 27.2515452,18.094333 C27.2515452,13.0054916 23.1388836,8.88 18.0658682,8.88 C12.9926616,8.88 8.88,13.0054916 8.88,18.094333 C8.88,23.1833661 12.9926616,27.3092413 18.0658682,27.3092413 C19.411778,27.3092413 20.7469833,27.0467361 22.706495,27.0467361 C24.466825,27.0467361 26.3770192,27.6522812 28.4911739,29.5314268 Z M23.706991,24.7505352 C23.5867556,24.9098791 23.3919705,24.9977004 23.1583812,24.9977004 C22.9291885,24.9977004 22.6955993,24.9127554 22.5333102,24.7706689 C22.1617083,24.4448864 22.052751,23.9168082 22.2953244,23.6167201 C22.3901364,23.4993694 22.5440148,23.4349416 22.7286688,23.4349416 C22.9530827,23.4349416 23.18801,23.5296658 23.3902501,23.7012817 C23.7987445,24.0477731 23.9231853,24.4598429 23.706991,24.7505352 Z M25.0808092,23.3919897 C24.9414585,23.3919897 24.7665533,23.2282355 24.560299,22.9053293 C24.3565296,22.5864498 24.2819799,22.2207834 24.3830999,22.0357451 C24.4496212,21.9134089 24.5893542,21.8602942 24.7654064,21.9270231 C25.1062326,22.0562623 25.2400398,22.5797385 25.2757855,22.8209595 C25.3358076,23.224784 25.2086907,23.3919897 25.0808092,23.3919897 Z" mask="url(#qiwi-b)"/>
  </g>
</svg>
